<?xml version="1.0" encoding="UTF-8"?>
<svg width="18px" height="19px" viewBox="0 0 18 19" version="1.1" xmlns="http://www.w3.org/2000/svg" xmlns:xlink="http://www.w3.org/1999/xlink">
    <title>773E37FE-D8D6-4714-B2E1-62E1E3A1CF3B</title>
    <defs>
        <filter id="filter-1">
            <feColorMatrix in="SourceGraphic" type="matrix" values="0.62 0 0 0 0 
                                                                    0 0.62 0 0 0 
                                                                    0 0 0.62 0 0 
                                                                    0 0 0 1.00 0"></feColorMatrix>
        </filter>
    </defs>
    <g id="Page-1" stroke="none" stroke-width="1" fill="none" fill-rule="evenodd">
        <g id="Icon/Search-small" transform="translate(-371.000000, -323.000000)" filter="url(#filter-1)">
            <g transform="translate(371.000000, 323.000000)">
                <path d="M7.96895214,8.8817842e-15 C12.3700829,8.8817842e-15 15.9379043,3.45031956 15.9379043,7.70650442 C15.9379043,9.5585275 15.2623583,11.2579647 14.1365644,12.5869379 L17.6409151,15.9760268 C18.1039269,16.4237899 18.1162885,17.162119 17.6685253,17.6251308 C17.6594766,17.6344877 17.6502719,17.6436924 17.6409151,17.6527411 L17.5982127,17.6940371 C17.1386205,18.1384932 16.4093942,18.1384932 15.949802,17.6940371 L12.4394688,14.2993125 C12.3953725,14.2566683 12.3553636,14.2113887 12.3194505,14.1639624 C11.0699721,14.9535822 9.57494167,15.4130088 7.96895214,15.4130088 C3.5678214,15.4130088 -5.23137089e-13,11.9626893 -5.23137089e-13,7.70650442 C-5.23137089e-13,3.45031956 3.5678214,8.8817842e-15 7.96895214,8.8817842e-15 Z M7.96895214,2.37123213 C4.92201547,2.37123213 2.45198527,4.7599149 2.45198527,7.70650442 C2.45198527,10.6530939 4.92201547,13.0417767 7.96895214,13.0417767 C11.0158888,13.0417767 13.485919,10.6530939 13.485919,7.70650442 C13.485919,4.7599149 11.0158888,2.37123213 7.96895214,2.37123213 Z" id="Combined-Shape" fill="#FFFFFF" fill-rule="nonzero"></path>
            </g>
        </g>
    </g>
</svg>