<?xml version="1.0" encoding="UTF-8"?>
<svg width="14px" height="14px" viewBox="0 0 14 14" version="1.1" xmlns="http://www.w3.org/2000/svg" xmlns:xlink="http://www.w3.org/1999/xlink">
    <title>2EDB63DA-7632-4A78-A5FF-931956CB4F09</title>
    <defs>
        <path d="M13,12 C13.5522847,12 14,12.4477153 14,13 C14,13.5522847 13.5522847,14 13,14 L1,14 C0.44771525,14 6.76353751e-17,13.5522847 0,13 C-6.76353751e-17,12.4477153 0.44771525,12 1,12 L13,12 Z M7,0 C7.55228475,-1.01453063e-16 8,0.44771525 8,1 L7.999,6.596 L10.0899758,4.60752201 C10.4469274,4.26759823 11.0080879,4.26848352 11.3639653,4.60953186 C11.6995389,4.93112252 11.7108744,5.46385944 11.3892837,5.79943308 L11.3620452,5.82658574 L8.276,8.764 L8.29249837,8.78093627 L7.02042891,10 L7.008,9.988 L7,10 L6.99,9.988 L6.97957109,10 L5.70750163,8.78093627 L5.723,8.765 L2.63795476,5.82658574 C2.30136811,5.50605549 2.28835182,4.97335698 2.60888208,4.63677033 C2.61772428,4.62748518 2.62677753,4.61840332 2.63603473,4.60953186 C2.99191209,4.26848352 3.55307257,4.26759823 3.91002423,4.60752201 L5.999,6.596 L6,1 C6,0.44771525 6.44771525,-3.42636147e-16 7,0 Z" id="path-1"></path>
    </defs>
    <g id="Page-1" stroke="none" stroke-width="1" fill="none" fill-rule="evenodd">
        <g id="BC-Token" transform="translate(-418.000000, -405.000000)">
            <g id="Button/Pill/40-with-icon/Default" transform="translate(405.000000, 392.000000)">
                <g id="Icon/Add" transform="translate(13.000000, 13.000000)">
                    <mask id="mask-2" fill="white">
                        <use xlink:href="#path-1"></use>
                    </mask>
                    <use id="Combined-Shape" fill="#40404B" fill-rule="nonzero" xlink:href="#path-1"></use>
                </g>
            </g>
        </g>
    </g>
</svg>