<?xml version="1.0" encoding="UTF-8"?>
<svg width="14px" height="14px" viewBox="0 0 14 14" version="1.1" xmlns="http://www.w3.org/2000/svg" xmlns:xlink="http://www.w3.org/1999/xlink">
    <title>B72C3069-6207-4E05-85FE-0EDD8F77DB04</title>
    <defs>
        <path d="M8.5,3 C9.88071187,3 11,4.11928813 11,5.5 L11,5.5 L11,11.5 C11,12.8807119 9.88071187,14 8.5,14 L8.5,14 L2.5,14 C1.11928813,14 0,12.8807119 0,11.5 L0,11.5 L0,5.5 C0,4.11928813 1.11928813,3 2.5,3 L2.5,3 Z M8.5,4 L2.5,4 C1.67157288,4 1,4.67157288 1,5.5 L1,5.5 L1,11.5 C1,12.3284271 1.67157288,13 2.5,13 L2.5,13 L8.5,13 C9.32842712,13 10,12.3284271 10,11.5 L10,11.5 L10,5.5 C10,4.67157288 9.32842712,4 8.5,4 L8.5,4 Z M11.5,0 C12.8254834,0 13.9100387,1.03153594 13.9946823,2.33562431 L14,2.5 L14,9.5 C14,10.8254834 12.9684641,11.9100387 11.6643757,11.9946823 L11.5,12 L11.5,11 C12.2796961,11 12.9204487,10.4051119 12.9931334,9.64446001 L13,9.5 L13,2.5 C13,1.72030388 12.4051119,1.07955132 11.64446,1.00686658 L11.5,1 L5.5,1 C4.72030388,1 4.07955132,1.59488808 4.00686658,2.35553999 L4,2.5 L3,2.5 C3,1.1745166 4.03153594,0.089961328 5.33562431,0.00531767968 L5.5,0 L11.5,0 Z" id="path-1"></path>
    </defs>
    <g id="Page-1" stroke="none" stroke-width="1" fill="none" fill-rule="evenodd">
        <g id="ballerina-UI-kit" transform="translate(-1050.000000, -257.000000)">
            <g id="Button/32/Circle/Default" transform="translate(1041.000000, 248.000000)">
                <g id="Icon/12/Plus" transform="translate(9.000000, 9.000000)">
                    <mask id="mask-2" fill="white">
                        <use xlink:href="#path-1"></use>
                    </mask>
                    <use id="Combined-Shape" fill="#FFFFFF" xlink:href="#path-1"></use>
                </g>
            </g>
        </g>
    </g>
</svg>