<?xml version="1.0" encoding="UTF-8"?>
<svg width="47px" height="48px" viewBox="0 0 47 48" version="1.1" xmlns="http://www.w3.org/2000/svg" xmlns:xlink="http://www.w3.org/1999/xlink">
    <title>6FD4F05E-9118-4512-92C0-020F9B5CB60E</title>
    <g id="Page-1" stroke="none" stroke-width="1" fill="none" fill-rule="evenodd">
        <g id="BC-Search-results" transform="translate(-101.000000, -385.000000)" fill-rule="nonzero">
            <g id="Group" transform="translate(101.000000, 385.000000)">
                <path d="M40.8497207,39.5079529 C21.0407795,48.9353412 8.74713244,41.0477176 0.877579501,36.2569412 C0.390614796,35.9550118 -0.437055793,36.3275294 0.281061854,37.1523765 C2.90280303,40.3312941 11.494803,47.9934118 22.7098619,47.9934118 C33.9326383,47.9934118 40.609156,41.8697412 41.444356,40.8015059 C42.2739089,39.7423059 41.6879324,39.1580235 40.8495324,39.5079529 L40.8497207,39.5079529 Z M46.4130148,36.4355765 C45.8810619,35.7428706 43.1783795,35.6137412 41.4774854,35.8226824 C39.773956,36.0256 37.2169677,37.0667294 37.4392736,37.6918588 C37.5533442,37.9260235 37.7861913,37.8209882 38.9564501,37.7157647 C40.1299089,37.5986824 43.4172501,37.1838118 44.1022383,38.0792471 C44.7904266,38.9808941 43.0537677,43.2760471 42.7365913,43.9687529 C42.4301442,44.6614588 42.8536736,44.8400941 43.4292971,44.3787294 C43.9970148,43.9175529 45.0247795,42.7232 45.7144736,41.0330353 C46.3994619,39.3336471 46.817156,36.9630118 46.4128266,36.4355765 L46.4130148,36.4355765 Z" id="Shape" fill="#FF9900"></path>
                <path d="M24.0830383,0 C27.1729207,0 31.2092501,0.821647059 33.6472736,3.16141176 C36.737156,6.04574118 36.4423795,9.89458824 36.4423795,14.0828235 L36.4423795,23.9774118 C36.4423795,26.5105987 37.3366554,27.8319304 38.3192009,29.1615286 L38.5769895,29.50937 C38.6632332,29.6259145 38.7496144,29.7433237 38.835603,29.8624 C39.2463324,30.4338824 39.3357442,31.1216941 38.8177207,31.5501176 C37.5228501,32.6305882 35.2188501,34.64 33.9508971,35.7652706 L33.9330148,35.7473882 C33.5134383,36.1223529 32.9061913,36.1492706 32.4329677,35.8991059 C30.3254854,34.1488941 29.9503324,33.3362824 28.7894854,31.6662588 C25.306756,35.2205176 22.842003,36.2831059 18.3234148,36.2831059 C12.9831795,36.2831059 8.82167362,32.9878588 8.82167362,26.3885176 C8.82167362,21.2359529 11.6169677,17.7263059 15.5906148,16.0118588 C19.0377677,14.4935529 23.8511324,14.2256941 27.5303795,13.8061176 L27.5303795,12.9844706 C27.5303795,11.4752 27.6463324,9.68922353 26.7623795,8.38550588 C25.9853442,7.21562353 24.5029913,6.73336471 23.1990854,6.73336471 C20.7791324,6.73336471 18.618003,7.97458824 18.0911324,10.5464471 C17.9838383,11.1181176 17.5642619,11.6807529 16.9927795,11.7074824 L10.8308971,11.0467765 C10.3130619,10.9304471 9.7415795,10.5108706 9.88445009,9.71595294 C11.3043089,2.25054118 18.0463324,0 24.0830383,0 Z M27.5303795,18.8961882 C22.9400736,18.8961882 18.0911324,19.8784 18.0911324,25.2901647 C18.0911324,28.0316235 19.5109913,29.8891294 21.9490148,29.8891294 C23.7349913,29.8891294 25.3334854,28.7907765 26.3426148,27.0046118 C27.5928736,24.8079059 27.5303795,22.7450353 27.5303795,20.2714353 Z" id="Combined-Shape" fill="#000000"></path>
            </g>
        </g>
    </g>
</svg>