<?xml version="1.0" encoding="UTF-8"?>
<svg width="12px" height="12px" viewBox="0 0 12 12" version="1.1" xmlns="http://www.w3.org/2000/svg" xmlns:xlink="http://www.w3.org/1999/xlink">
    <title>99EFB5BC-D790-46D1-BB94-98247477102B</title>
    <defs>
        <path d="M6,0 C6.27614237,-5.07265313e-17 6.5,0.223857625 6.5,0.5 L6.5,5.5 L11.5,5.5 C11.7761424,5.5 12,5.72385763 12,6 C12,6.27614237 11.7761424,6.5 11.5,6.5 L6.5,6.5 L6.5,11.5 C6.5,11.7761424 6.27614237,12 6,12 C5.72385763,12 5.5,11.7761424 5.5,11.5 L5.5,6.499 L0.5,6.5 C0.223857625,6.5 0,6.27614237 0,6 C0,5.72385763 0.223857625,5.5 0.5,5.5 L5.5,5.499 L5.5,0.5 C5.5,0.223857625 5.72385763,5.07265313e-17 6,0 Z" id="path-1"></path>
    </defs>
    <g id="Page-1" stroke="none" stroke-width="1" fill="none" fill-rule="evenodd">
        <g id="BC-Org" transform="translate(-1098.000000, -125.000000)">
            <g id="Button/Rounded/40-with-icon/Default" transform="translate(1084.000000, 111.000000)">
                <g id="Icon/Add" transform="translate(14.000000, 14.000000)">
                    <mask id="mask-2" fill="white">
                        <use xlink:href="#path-1"></use>
                    </mask>
                    <use id="Combined-Shape" fill="#D8D8D8" xlink:href="#path-1"></use>
                    <rect id="Color" fill="#FFFFFF" mask="url(#mask-2)" x="-2" y="-2" width="16" height="16"></rect>
                </g>
            </g>
        </g>
    </g>
</svg>