<?xml version="1.0" encoding="UTF-8"?>
<svg width="16px" height="16px" viewBox="0 0 16 16" version="1.1" xmlns="http://www.w3.org/2000/svg" xmlns:xlink="http://www.w3.org/1999/xlink">
    <title>8B43A233-D323-4AAC-AF25-BE75ABBA1F01</title>
    <defs>
        <path d="M8,1 C9.1045695,1 10,1.8954305 10,3 L13.5,3 C13.7761424,3 14,3.22385763 14,3.5 C14,3.77614237 13.7761424,4 13.5,4 L13,4 L13,11 C13,12.6568542 11.6568542,14 10,14 L6,14 C4.34314575,14 3,12.6568542 3,11 L3,4 L2.5,4 C2.22385763,4 2,3.77614237 2,3.5 C2,3.22385763 2.22385763,3 2.5,3 L6,3 L6,3 C6,1.8954305 6.8954305,1 8,1 Z M12,4 L4,4 L4,11 C4,12.0543618 4.81587779,12.9181651 5.85073766,12.9945143 L6,13 L10,13 C11.0543618,13 11.9181651,12.1841222 11.9945143,11.1492623 L12,11 L12,4 Z M6.5,6 C6.77614237,6 7,6.22385763 7,6.5 L7,10.5 C7,10.7761424 6.77614237,11 6.5,11 C6.22385763,11 6,10.7761424 6,10.5 L6,6.5 C6,6.22385763 6.22385763,6 6.5,6 Z M9.5,6 C9.77614237,6 10,6.22385763 10,6.5 L10,10.5 C10,10.7761424 9.77614237,11 9.5,11 C9.22385763,11 9,10.7761424 9,10.5 L9,6.5 C9,6.22385763 9.22385763,6 9.5,6 Z M8,2 C7.48716416,2 7.06449284,2.38604019 7.00672773,2.88337887 L7,3 L9,3 C9,2.44771525 8.55228475,2 8,2 Z" id="path-1"></path>
    </defs>
    <g id="Page-1" stroke="none" stroke-width="1" fill="none" fill-rule="evenodd">
        <g id="ballerina-UI-kit" transform="translate(-511.000000, -651.000000)">
            <g id="Button/Rounded/32-with-icon/Default-Copy-7" transform="translate(503.000000, 643.000000)">
                <g id="Icon/Clear" transform="translate(8.000000, 8.000000)">
                    <mask id="mask-2" fill="white">
                        <use xlink:href="#path-1"></use>
                    </mask>
                    <use id="Combined-Shape" fill="#979797" fill-rule="nonzero" xlink:href="#path-1"></use>
                    <rect id="Color" fill="#FFFFFF" mask="url(#mask-2)" x="0" y="0" width="16" height="16"></rect>
                </g>
            </g>
        </g>
    </g>
</svg>