<?xml version="1.0" encoding="UTF-8"?>
<svg width="16px" height="14px" viewBox="0 0 16 14" version="1.1" xmlns="http://www.w3.org/2000/svg" xmlns:xlink="http://www.w3.org/1999/xlink">
    <title>F91FC908-C26D-4ED3-A898-E58B42264214</title>
    <defs>
        <path d="M11.1928338,12.315814 L11.1937895,12.3153522 L11.1228166,12.3491414 C11.0658685,12.3758446 11.0088713,12.4015904 10.9518245,12.4264027 L11.1937895,12.3153522 C11.0652096,12.3774943 10.9363798,12.434698 10.807295,12.4872392 C10.7529101,12.5093819 10.6978583,12.5309305 10.6427597,12.5516537 C10.6048512,12.5659096 10.5672074,12.5796729 10.5295417,12.5930583 C10.4541516,12.6198491 10.3787241,12.6451098 10.3032079,12.6689125 C10.2847819,12.6747223 10.2657745,12.6806213 10.2467614,12.6864288 L10.2070054,12.6984368 C10.0132988,12.756286 9.81900715,12.8047132 9.62411341,12.8446333 C9.60292691,12.8489733 9.5816189,12.8532351 9.56030366,12.8573965 C9.48044035,12.8729874 9.40054371,12.8871576 9.3205448,12.8999831 C9.2900658,12.9048688 9.25975043,12.909533 9.22942033,12.9140076 C9.16285607,12.9238309 9.09589773,12.9327802 9.02886704,12.9408442 C8.98645935,12.9459436 8.94445772,12.9506436 8.90242754,12.9550057 C8.847407,12.960718 8.79204069,12.9658754 8.73662458,12.9704676 C8.69140187,12.9742138 8.64636917,12.977569 8.60130342,12.9805624 C8.54393033,12.9843748 8.4862795,12.9876112 8.42857426,12.9902796 C8.38026195,12.9925118 8.33224423,12.9943359 8.28418865,12.9957806 C8.28249738,12.9958315 8.28049471,12.9958911 8.27849197,12.99595 L7.99968604,13 L7.99968604,13 C5.53370991,13 3.16761603,12.1357492 0.868545814,8.4704388 L0.677111073,8.15847082 L0.456375667,7.78485035 L0,7 L0,7 L0.456375667,6.21514965 C0.526620647,6.09434611 0.596927269,5.97616722 0.66729648,5.86056224 L0.456375667,6.21514965 C0.550997809,6.05242358 0.645731798,5.89445992 0.740579954,5.74113463 C0.923363253,5.44565956 1.10656456,5.16741883 1.29020641,4.90551517 C1.33220363,4.84561685 1.37445982,4.7862465 1.4167395,4.72772941 C1.44404169,4.68994014 1.47154493,4.65224718 1.49905816,4.61491207 C1.54042019,4.55878847 1.58149665,4.50387928 1.62259555,4.44975695 C1.65214709,4.41083875 1.68195769,4.37200859 1.71178016,4.33358833 C1.75398021,4.27922152 1.79624306,4.22562675 1.83852992,4.1728436 C1.86986799,4.13372481 1.90143154,4.09479306 1.93300852,4.05630869 C1.95860827,4.02510764 1.98439541,3.99398728 2.01019155,3.96316266 C2.06160873,3.90172362 2.11299979,3.84153056 2.16442689,3.78249058 C2.18470108,3.75921477 2.20504398,3.73604687 2.22539254,3.71305812 C2.26881527,3.66399664 2.31262655,3.61535529 2.35646425,3.56753171 C2.3710719,3.55159678 2.38547062,3.53598106 2.3998722,3.52045312 C2.57380292,3.33293749 2.7477853,3.15856167 2.92219619,2.99620661 L3.11417487,2.82246969 L3.115,2.822 L1.14644661,0.853553391 C0.951184464,0.658291245 0.951184464,0.341708755 1.14644661,0.146446609 C1.32001296,-0.0271197425 1.58943736,-0.0464048927 1.7843055,0.0885911588 L1.85355339,0.146446609 L14.8535534,13.1464466 C15.0488155,13.3417088 15.0488155,13.6582912 14.8535534,13.8535534 C14.679987,14.0271197 14.4105626,14.0464049 14.2156945,13.9114088 L14.1464466,13.8535534 L12.0896574,11.796312 C12.0893238,11.7965389 12.0889902,11.7967658 12.0886566,11.7969926 L12.0976422,11.7908733 C11.7973819,11.9956727 11.4958016,12.1694501 11.1928338,12.315814 Z M2.9798642,4.3813598 L2.87242754,4.50040378 C2.83938785,4.53759082 2.80634515,4.57531672 2.77329941,4.61358844 L2.87208767,4.50078632 C2.80092648,4.58088803 2.72975132,4.66348954 2.65856201,4.74866045 L2.77329941,4.61358844 C2.70000091,4.69847867 2.6266875,4.78605431 2.55335902,4.87639138 L2.65856201,4.74866045 C2.59145787,4.82894387 2.52434117,4.91151026 2.45721177,4.99641792 L2.55335902,4.87639138 C2.50069322,4.94127304 2.44801964,5.00757915 2.39533821,5.07533787 L2.45721177,4.99641792 C2.31170757,5.18045683 2.16614369,5.37549533 2.02051877,5.58212706 C2.01326801,5.5924138 2.00543573,5.6035589 1.99760327,5.61473763 L2.02051877,5.58212706 C1.95673868,5.67262661 1.89294688,5.76535 1.82914325,5.8603471 L1.99760327,5.61473763 C1.82662802,5.85875879 1.65556851,6.1188023 1.4844225,6.39582876 C1.4575167,6.43937951 1.43056295,6.48342556 1.40360705,6.52789652 L1.22425819,6.83003647 L1.12513483,6.99890909 L1.43903599,7.53347531 C3.63943322,11.19771 5.82408945,11.9090909 7.99968604,11.9090909 L8.26585174,11.9050631 C8.31836336,11.9034469 8.37088066,11.9013282 8.42340369,11.8986785 C8.46204923,11.8967275 8.50039833,11.8945084 8.53875052,11.8919952 L8.42340369,11.8986785 C8.50805371,11.8944081 8.59271864,11.8887583 8.67739875,11.8816093 L8.53875052,11.8919952 C8.63619888,11.8856092 8.73366715,11.8773238 8.83115578,11.8669561 L8.67739875,11.8816093 C8.76996376,11.8737946 8.86254692,11.8641884 8.95514859,11.8526343 L8.83115578,11.8669561 C8.92317189,11.8571704 9.01520613,11.8455295 9.10725885,11.83188 L8.95514859,11.8526343 C9.04990614,11.8408112 9.14468309,11.8269484 9.23947981,11.8108781 L9.10725885,11.83188 C9.1960411,11.8187153 9.28484054,11.8036821 9.3736575,11.7866425 L9.23947981,11.8108781 C9.33372011,11.7949021 9.42797996,11.7767445 9.52225974,11.7562404 L9.3736575,11.7866425 C9.60739306,11.7418 9.84124994,11.6830617 10.075234,11.6079146 C10.0868529,11.6041816 10.0978498,11.6006123 10.108847,11.5970065 L10.075234,11.6079146 C10.1678446,11.5781714 10.2604752,11.5458577 10.353126,11.5108177 L10.108847,11.5970065 C10.514744,11.4639181 10.9210246,11.2810944 11.3277194,11.0354192 L9.738,9.445 L9.58096299,9.55010187 C9.33459436,9.70316498 9.06441321,9.82152041 8.77725287,9.89833483 L8.77724974,9.89833567 L8.67068364,9.92474677 C8.65525827,9.9282694 8.63978763,9.93167313 8.62427273,9.93495695 L8.77724974,9.89833567 C8.66678862,9.92788352 8.55381512,9.9512846 8.43871817,9.96814997 C8.43399511,9.96884148 8.42963117,9.96947056 8.42526421,9.97009024 C8.37130243,9.97775488 8.3164755,9.98401875 8.26122033,9.98878482 C8.24292263,9.99036146 8.22484956,9.99175537 8.20673233,9.99298843 C8.13862525,9.99763059 8.06958933,10 8,10 C6.34314575,10 5,8.65685425 5,7 C5,6.93041067 5.00236941,6.86137475 5.00703195,6.7929685 L5,7 C5,6.90915709 5.00403772,6.81925724 5.0119435,6.73047012 C5.02264667,6.61057961 5.04025914,6.49339118 5.06443232,6.37861986 C5.06915445,6.35620669 5.07408412,6.3340674 5.07925695,6.31202179 C5.08623546,6.28226815 5.09372819,6.25241859 5.10166433,6.22275026 C5.19496162,5.87389583 5.34965978,5.54996744 5.55345155,5.26338327 L5.55387666,5.26278562 L5.554,5.261 L3.84625583,3.55306202 L3.84625583,3.55306202 L3.86121398,3.54072964 C3.56766035,3.78212369 3.27388092,4.06069639 2.9798642,4.3813598 Z M7.99968604,1 C10.4656622,1 12.831756,1.86425082 15.1318455,5.53129399 L15.3233675,5.84341041 L16,6.99892012 L15.5429964,7.78485035 C14.9005619,8.88967475 14.2529715,9.77496643 13.5994999,10.4795469 L12.8836301,9.76387161 C13.4534289,9.16719306 14.0241126,8.41519686 14.595765,7.47210348 L14.7751139,7.16996353 L14.872378,7.00109091 L14.5603361,6.46652469 C12.4917599,3.02180633 10.4370952,2.25208697 8.39079085,2.10770617 L8.21025615,2.09653739 L7.99968604,2.09090909 C7.20788217,2.09090909 6.41481341,2.19421293 5.62024998,2.49908539 L4.80542323,1.68472478 C5.85267182,1.17856012 6.91649783,1 7.99968604,1 Z M6.277,5.984 L6.28561061,5.96943305 C6.10429743,6.27040761 6,6.62302382 6,7 L6.004,7.125 L6.00548574,7.14926234 C6.01671751,7.30150124 6.044991,7.44900102 6.08840587,7.58986135 C6.09265515,7.60364974 6.09706907,7.61743339 6.10162752,7.63115107 L6.08840587,7.58986135 C6.11803419,7.68599095 6.15471434,7.77902833 6.19784233,7.86836952 C6.20551887,7.88426496 6.21324576,7.89974524 6.22116587,7.91510967 L6.19784233,7.86836952 C6.21860145,7.91137278 6.24085445,7.9535197 6.26453396,7.99474289 L6.22116587,7.91510967 C6.24398136,7.95937005 6.26840023,8.00266909 6.29434569,8.04493 L6.26453396,7.99474289 C6.28852611,8.03651034 6.31398268,8.07732951 6.34083363,8.11713036 L6.29434569,8.04493 C6.31826136,8.0838847 6.3434741,8.12195735 6.36992379,8.15908781 L6.34083363,8.11713036 C6.36713236,8.15611268 6.39476871,8.19411812 6.42367684,8.23108087 L6.36992379,8.15908781 C6.39997807,8.20127847 6.43162941,8.24225263 6.46478958,8.28192208 L6.42367684,8.23108087 C6.45587868,8.27225503 6.48965861,8.31213536 6.52492565,8.35063086 L6.46478958,8.28192208 C6.49407175,8.31695227 6.52453047,8.35096507 6.556105,8.38389972 L6.52492565,8.35063086 C6.55727042,8.38593656 6.59086606,8.42007743 6.62564238,8.45298327 L6.556105,8.38389972 C6.59020236,8.41946589 6.62560097,8.45377474 6.6622243,8.48674976 L6.62564238,8.45298327 C6.66074573,8.48619854 6.69705206,8.51815545 6.7344892,8.5487818 L6.6622243,8.48674976 C6.69894407,8.51981161 6.73689504,8.55153261 6.77600007,8.58183563 L6.7344892,8.5487818 C6.76641547,8.57489985 6.79916414,8.60005023 6.83269041,8.62418818 L6.77600007,8.58183563 C6.81604012,8.6128632 6.85729008,8.64240418 6.89966718,8.67037578 L6.83269041,8.62418818 C6.95678267,8.71353102 7.09152821,8.7890035 7.23465667,8.84833528 C7.2513179,8.85523849 7.26776022,8.86179558 7.28430828,8.86813911 L7.23465667,8.84833528 C7.38557634,8.91089678 7.54581641,8.9555125 7.71271522,8.97952076 C7.73619719,8.98290264 7.76014345,8.98591238 7.78421755,8.98849496 L7.71271522,8.97952076 C7.7603877,8.98637841 7.80860347,8.99155473 7.85730048,8.99498768 L7.78421755,8.98849496 C7.8551024,8.99609921 7.92709566,9 8,9 C8.37068036,9 8.71780763,8.89915719 9.01544428,8.72340907 L6.277,5.984 Z M8,4 C9.65685425,4 11,5.34314575 11,7 C11,7.26880584 10.9646465,7.52935444 10.8983357,7.77724974 L9.995,6.874 L9.99451426,6.85073766 C9.92119078,5.85688854 9.12158891,5.0650092 8.12441583,5.00380681 L7.22275026,4.10166433 C7.47064556,4.03535346 7.73119416,4 8,4 Z" id="path-1"></path>
    </defs>
    <g id="Page-1" stroke="none" stroke-width="1" fill="none" fill-rule="evenodd">
        <g id="ballerina-UI-kit" transform="translate(-1253.000000, -508.000000)">
            <g id="show" transform="translate(1245.000000, 499.000000)">
                <g id="Icon/Show-pass" transform="translate(8.000000, 9.000000)">
                    <mask id="mask-2" fill="white">
                        <use xlink:href="#path-1"></use>
                    </mask>
                    <use id="Combined-Shape" fill="#FFFFFF" fill-rule="nonzero" xlink:href="#path-1"></use>
                </g>
            </g>
        </g>
    </g>
</svg>