<?xml version="1.0" encoding="UTF-8"?>
<svg width="16px" height="16px" viewBox="0 0 16 16" version="1.1" xmlns="http://www.w3.org/2000/svg" xmlns:xlink="http://www.w3.org/1999/xlink">
    <title>041DD932-47BF-4F5F-B9F1-2884664289AE</title>
    <g id="Page-1" stroke="none" stroke-width="1" fill="none" fill-rule="evenodd">
        <g id="BC-Search-results" transform="translate(-238.000000, -316.000000)" fill="#CBCEDB" fill-rule="nonzero">
            <g id="Icon/docs-Copy" transform="translate(238.000000, 316.000000)">
                <path d="M8,0.5 C12.1421356,0.5 15.5,3.85786438 15.5,8 C15.5,12.1421356 12.1421356,15.5 8,15.5 C3.85786438,15.5 0.5,12.1421356 0.5,8 C0.5,3.85786438 3.85786438,0.5 8,0.5 Z M8,1.5 C4.41014913,1.5 1.5,4.41014913 1.5,8 C1.5,11.5898509 4.41014913,14.5 8,14.5 C11.5898509,14.5 14.5,11.5898509 14.5,8 C14.5,4.41014913 11.5898509,1.5 8,1.5 Z M8,2.5 C8.24545989,2.5 8.44960837,2.67687516 8.49194433,2.91012437 L8.5,3 L8.5,8.793 L10.8535534,11.1464466 C11.0271197,11.320013 11.0464049,11.5894374 10.9114088,11.7843055 L10.8535534,11.8535534 C10.679987,12.0271197 10.4105626,12.0464049 10.2156945,11.9114088 L10.1464466,11.8535534 L7.5,9.20710678 L7.5,3 C7.5,2.72385763 7.72385763,2.5 8,2.5 Z" id="Combined-Shape"></path>
            </g>
        </g>
    </g>
</svg>