<?xml version="1.0" encoding="UTF-8"?>
<svg width="48px" height="48px" viewBox="0 0 48 48" version="1.1" xmlns="http://www.w3.org/2000/svg" xmlns:xlink="http://www.w3.org/1999/xlink">
    <title>9167E7EA-EA0D-40B0-8876-3E05CEA4101C</title>
    <g id="Page-1" stroke="none" stroke-width="1" fill="none" fill-rule="evenodd">
        <g id="BC-token-notification" transform="translate(-426.000000, -108.000000)" fill="#5567D5" fill-rule="nonzero">
            <g id="Info" transform="translate(426.000000, 108.000000)">
                <path d="M20,0 C31.045695,0 40,8.954305 40,20 C40,31.045695 31.045695,40 20,40 C8.954305,40 0,31.045695 0,20 C0,8.954305 8.954305,0 20,0 Z M20,2 C10.0588745,2 2,10.0588745 2,20 C2,29.9411255 10.0588745,38 20,38 C29.9411255,38 38,29.9411255 38,20 C38,10.0588745 29.9411255,2 20,2 Z M21.2058824,16 C21.6444614,16 22,16.3555386 22,16.7941176 C22,16.8485886 21.9945157,16.9017786 21.9840692,16.9531657 C21.9945684,17.0140639 22,17.0778262 22,17.1428571 L22,28.8571429 C22,29.4883254 21.4883254,30 20.8571429,30 C20.2259603,30 19.7142857,29.4883254 19.7142857,28.8571429 L19.714,17.588 L18.7941176,17.5882353 C18.3555386,17.5882353 18,17.2326967 18,16.7941176 C18,16.3555386 18.3555386,16 18.7941176,16 L21.2058824,16 Z M20.5,10 C21.3284271,10 22,10.6715729 22,11.5 C22,12.3284271 21.3284271,13 20.5,13 C19.6715729,13 19,12.3284271 19,11.5 C19,10.6715729 19.6715729,10 20.5,10 Z" id="Combined-Shape"></path>
            </g>
        </g>
    </g>
</svg>
