<?xml version="1.0" encoding="UTF-8"?>
<svg width="48px" height="48px" viewBox="0 0 48 48" version="1.1" xmlns="http://www.w3.org/2000/svg" xmlns:xlink="http://www.w3.org/1999/xlink">
    <title>E5E76986-3983-43B3-9CA3-64085BCC2D0C</title>
    <g id="Page-1" stroke="none" stroke-width="1" fill="none" fill-rule="evenodd">
        <g id="BC-Search-results" transform="translate(-100.000000, -536.000000)" fill-rule="nonzero">
            <g id="pm-orange-logo-horiz" transform="translate(100.000000, 536.000000)">
                <g id="Group" fill="#FF6C37">
                    <path d="M47.6895522,27.1522388 C49.361194,14.0656716 40.119403,2.10149254 27.0567164,0.429850746 C13.9940299,-1.24179104 1.98208955,8 0.310447761,21.0626866 C-1.36119403,34.1253731 7.88059701,46.1134328 20.9432836,47.8089552 C34.0298507,49.480597 45.9940299,40.238806 47.6895522,27.1522388 Z" id="Path"></path>
                </g>
                <path d="M32.6208955,15.5701493 L22.5432836,25.6477612 L19.7014925,22.8059701 C29.6119403,12.8955224 30.5910448,13.7552239 32.6208955,15.5701493 L32.6208955,15.5701493 Z" id="Path" fill="#FFFFFF"></path>
                <path d="M22.5432836,25.8865672 C22.4716418,25.8865672 22.4238806,25.8626866 22.3761194,25.8149254 L19.5104478,22.9731343 C19.4149254,22.8776119 19.4149254,22.7343284 19.5104478,22.638806 C29.5880597,12.561194 30.638806,13.5164179 32.7641791,15.4268657 C32.8119403,15.4746269 32.8358209,15.5223881 32.8358209,15.5940299 C32.8358209,15.6656716 32.8119403,15.7134328 32.7641791,15.761194 L22.6865672,25.8149254 C22.6626866,25.8626866 22.5910448,25.8865672 22.5432836,25.8865672 Z M20.0358209,22.8059701 L22.5432836,25.3134328 L32.2626866,15.5940299 C30.4955224,14.0179104 29.3014925,13.5402985 20.0358209,22.8059701 L20.0358209,22.8059701 Z" id="Shape" fill="#FF6C37"></path>
                <path d="M25.4328358,28.5373134 L22.6865672,25.7910448 L32.7641791,15.7134328 C35.4626866,18.4358209 31.4268657,22.8537313 25.4328358,28.5373134 Z" id="Path" fill="#FFFFFF"></path>
                <path d="M25.4328358,28.7761194 C25.361194,28.7761194 25.3134328,28.7522388 25.2656716,28.7044776 L22.519403,25.958209 C22.4716418,25.9104478 22.4716418,25.8626866 22.4716418,25.7910448 C22.4716418,25.719403 22.4955224,25.6716418 22.5432836,25.6238806 L32.6208955,15.5462687 C32.7164179,15.4507463 32.8597015,15.4507463 32.9552239,15.5462687 C33.5761194,16.119403 33.9104478,16.9313433 33.8865672,17.7671642 C33.838806,20.4179104 30.8298507,23.7850746 25.6238806,28.7044776 C25.5522388,28.7522388 25.480597,28.7761194 25.4328358,28.7761194 L25.4328358,28.7761194 Z M23.0208955,25.7910448 C24.5492537,27.3432836 25.1940299,27.9641791 25.4328358,28.2029851 C29.4447761,24.3820896 33.3373134,20.4656716 33.361194,17.7671642 C33.3850746,17.1462687 33.1462687,16.5253731 32.7402985,16.0477612 L23.0208955,25.7910448 Z" id="Shape" fill="#FF6C37"></path>
                <path d="M19.7492537,22.8776119 L21.7791045,24.9074627 C21.8268657,24.9552239 21.8268657,25.0029851 21.7791045,25.0507463 C21.7552239,25.0746269 21.7552239,25.0746269 21.7313433,25.0746269 L17.5283582,25.9820896 C17.3134328,26.0059701 17.1223881,25.8626866 17.0746269,25.6477612 C17.0507463,25.5283582 17.0985075,25.4089552 17.1701493,25.3373134 L19.6059701,22.9014925 C19.6537313,22.8537313 19.7253731,22.8298507 19.7492537,22.8776119 Z" id="Path" fill="#FFFFFF"></path>
                <path d="M17.4567164,26.2208955 C17.0985075,26.2208955 16.8358209,25.9343284 16.8358209,25.5761194 C16.8358209,25.4089552 16.9074627,25.241791 17.0268657,25.1223881 L19.4626866,22.6865672 C19.6059701,22.5671642 19.7970149,22.5671642 19.9402985,22.6865672 L21.9701493,24.7164179 C22.1134328,24.8358209 22.1134328,25.0507463 21.9701493,25.1940299 C21.9223881,25.241791 21.8746269,25.2656716 21.8029851,25.2895522 L17.6,26.1970149 C17.5522388,26.1970149 17.5044776,26.2208955 17.4567164,26.2208955 L17.4567164,26.2208955 Z M19.6776119,23.1402985 L17.3373134,25.480597 C17.2895522,25.5283582 17.2656716,25.6 17.3134328,25.6716418 C17.3373134,25.7432836 17.4089552,25.7671642 17.480597,25.7432836 L21.4208955,24.8835821 L19.6776119,23.1402985 Z" id="Shape" fill="#FF6C37"></path>
                <path d="M37.9462687,9.98208955 C36.4179104,8.50149254 33.958209,8.54925373 32.4776119,10.1014925 C30.9970149,11.6537313 31.0447761,14.0895522 32.5970149,15.5701493 C33.8626866,16.7880597 35.7731343,17.0029851 37.2776119,16.0955224 L34.5552239,13.3731343 L37.9462687,9.98208955 Z" id="Path" fill="#FFFFFF"></path>
                <path d="M35.2716418,16.8835821 C33.0029851,16.8835821 31.1641791,15.0447761 31.1641791,12.7761194 C31.1641791,10.5074627 33.0029851,8.66865672 35.2716418,8.66865672 C36.3223881,8.66865672 37.3492537,9.07462687 38.1134328,9.81492537 C38.161194,9.86268657 38.1850746,9.91044776 38.1850746,9.98208955 C38.1850746,10.0537313 38.161194,10.1014925 38.1134328,10.1492537 L34.8895522,13.3731343 L37.4208955,15.9044776 C37.5164179,16 37.5164179,16.1432836 37.4208955,16.238806 C37.3970149,16.2626866 37.3970149,16.2626866 37.3731343,16.2865672 C36.7522388,16.6686567 36.0119403,16.8835821 35.2716418,16.8835821 Z M35.2716418,9.17014925 C33.2656716,9.17014925 31.641791,10.7940299 31.6656716,12.8 C31.6656716,14.8059701 33.2895522,16.4298507 35.2955224,16.4059701 C35.8447761,16.4059701 36.3940299,16.2865672 36.8955224,16.0238806 L34.3880597,13.5402985 C34.3402985,13.4925373 34.3164179,13.4447761 34.3164179,13.3731343 C34.3164179,13.3014925 34.3402985,13.2537313 34.3880597,13.2059701 L37.5880597,10.0059701 C36.9432836,9.45671642 36.1313433,9.17014925 35.2716418,9.17014925 L35.2716418,9.17014925 Z" id="Shape" fill="#FF6C37"></path>
                <path d="M38.0179104,10.0537313 L37.9701493,10.0059701 L34.5552239,13.3731343 L37.2537313,16.0716418 C37.5164179,15.9044776 37.7791045,15.7134328 37.9940299,15.4985075 C39.5223881,13.9940299 39.5223881,11.558209 38.0179104,10.0537313 L38.0179104,10.0537313 Z" id="Path" fill="#FFFFFF"></path>
                <path d="M37.2776119,16.3343284 C37.2059701,16.3343284 37.158209,16.3104478 37.1104478,16.2626866 L34.3880597,13.5402985 C34.3402985,13.4925373 34.3164179,13.4447761 34.3164179,13.3731343 C34.3164179,13.3014925 34.3402985,13.2537313 34.3880597,13.2059701 L37.7791045,9.81492537 C37.8746269,9.71940299 38.0179104,9.71940299 38.1134328,9.81492537 L38.1850746,9.86268657 C39.7850746,11.4626866 39.7850746,14.041791 38.2089552,15.6656716 C37.9701493,15.9044776 37.7074627,16.119403 37.4208955,16.2865672 C37.3492537,16.3104478 37.3014925,16.3343284 37.2776119,16.3343284 L37.2776119,16.3343284 Z M34.8895522,13.3731343 L37.3014925,15.7850746 C37.4925373,15.6656716 37.6835821,15.4985075 37.8268657,15.3552239 C39.1880597,13.9940299 39.2597015,11.7731343 37.9462687,10.3402985 L34.8895522,13.3731343 Z" id="Shape" fill="#FF6C37"></path>
                <path d="M33.0268657,16 C32.4537313,15.4268657 31.5223881,15.4268657 30.9492537,16 L21.9462687,25.0029851 L23.4507463,26.5074627 L32.9791045,18.1492537 C33.6,17.6238806 33.6477612,16.6925373 33.1223881,16.0716418 C33.0746269,16.0477612 33.0507463,16.0238806 33.0268657,16 L33.0268657,16 Z" id="Path" fill="#FFFFFF"></path>
                <path d="M23.4268657,26.7462687 C23.3552239,26.7462687 23.3074627,26.7223881 23.2597015,26.6746269 L21.7552239,25.1701493 C21.6597015,25.0746269 21.6597015,24.9313433 21.7552239,24.8358209 L30.758209,15.8328358 C31.4268657,15.1641791 32.5014925,15.1641791 33.1701493,15.8328358 C33.838806,16.5014925 33.838806,17.5761194 33.1701493,18.2447761 C33.1462687,18.2686567 33.1223881,18.2925373 33.0985075,18.3164179 L23.5701493,26.6746269 C23.5462687,26.7223881 23.4985075,26.7462687 23.4268657,26.7462687 L23.4268657,26.7462687 Z M22.280597,25.0029851 L23.4507463,26.1731343 L32.8119403,17.958209 C33.3373134,17.5283582 33.3850746,16.7402985 32.9552239,16.2149254 C32.5253731,15.6895522 31.7373134,15.641791 31.2119403,16.0716418 C31.1880597,16.0955224 31.1641791,16.119403 31.1164179,16.1432836 L22.280597,25.0029851 Z" id="Shape" fill="#FF6C37"></path>
                <path d="M15.0447761,35.2477612 C14.9492537,35.2955224 14.9014925,35.3910448 14.9253731,35.4865672 L15.3313433,37.2059701 C15.4268657,37.4447761 15.2835821,37.7313433 15.0208955,37.8029851 C14.8298507,37.8746269 14.6149254,37.8029851 14.4955224,37.6597015 L11.8686567,35.0567164 L20.441791,26.4835821 L23.4029851,26.5313433 L25.4089552,28.5373134 C24.9313433,28.9432836 22.041791,31.7373134 15.0447761,35.2477612 L15.0447761,35.2477612 Z" id="Path" fill="#FFFFFF"></path>
                <path d="M14.8537313,38.041791 C14.6626866,38.041791 14.4716418,37.9701493 14.3522388,37.8268657 L11.7492537,35.2238806 C11.7014925,35.1761194 11.6776119,35.1283582 11.6776119,35.0567164 C11.6776119,34.9850746 11.7014925,34.9373134 11.7492537,34.8895522 L20.3223881,26.3164179 C20.3701493,26.2686567 20.441791,26.2447761 20.4895522,26.2447761 L23.4507463,26.2925373 C23.5223881,26.2925373 23.5701493,26.3164179 23.6179104,26.3641791 L25.6238806,28.3701493 C25.6716418,28.4179104 25.6955224,28.4895522 25.6955224,28.561194 C25.6955224,28.6328358 25.6716418,28.680597 25.6,28.7283582 L25.4328358,28.8716418 C22.9014925,31.0925373 19.4626866,33.3134328 15.1880597,35.438806 L15.5940299,37.1343284 C15.6656716,37.4447761 15.5223881,37.7791045 15.2358209,37.9462687 C15.0925373,38.0179104 14.9731343,38.041791 14.8537313,38.041791 Z M12.2268657,35.0567164 L14.6865672,37.4925373 C14.758209,37.6119403 14.9014925,37.6597015 15.0208955,37.5880597 C15.1402985,37.5164179 15.1880597,37.3731343 15.1164179,37.2537313 L14.7104478,35.5343284 C14.6626866,35.319403 14.758209,35.1283582 14.9492537,35.0328358 C19.1761194,32.9074627 22.5910448,30.7104478 25.0985075,28.5373134 L23.3313433,26.7701493 L20.5850746,26.7223881 L12.2268657,35.0567164 Z" id="Shape" fill="#FF6C37"></path>
                <path d="M9.83880597,37.1104478 L11.8925373,35.0567164 L14.9492537,38.1134328 L10.0776119,37.7791045 C9.86268657,37.7552239 9.71940299,37.5641791 9.74328358,37.3492537 C9.74328358,37.2537313 9.76716418,37.158209 9.83880597,37.1104478 L9.83880597,37.1104478 Z" id="Path" fill="#FFFFFF"></path>
                <path d="M14.9492537,38.3283582 L10.0537313,37.9940299 C9.69552239,37.9701493 9.45671642,37.6597015 9.48059701,37.3014925 C9.50447761,37.158209 9.55223881,37.0149254 9.67164179,36.919403 L11.7253731,34.8656716 C11.8208955,34.7701493 11.9641791,34.7701493 12.0597015,34.8656716 L15.1164179,37.9223881 C15.1880597,37.9940299 15.2119403,38.0895522 15.1641791,38.1850746 C15.1164179,38.280597 15.0447761,38.3283582 14.9492537,38.3283582 L14.9492537,38.3283582 Z M11.8925373,35.3910448 L10.0059701,37.2776119 C9.93432836,37.3253731 9.93432836,37.4447761 10.0059701,37.4925373 C10.0298507,37.5164179 10.0537313,37.5402985 10.1014925,37.5402985 L14.3283582,37.8268657 L11.8925373,35.3910448 Z" id="Shape" fill="#FF6C37"></path>
                <path d="M19.6059701,27.5820896 C19.4626866,27.5820896 19.3671642,27.4626866 19.3671642,27.3432836 C19.3671642,27.2716418 19.3910448,27.2238806 19.438806,27.1761194 L21.7552239,24.8597015 C21.8507463,24.7641791 21.9940299,24.7641791 22.0895522,24.8597015 L23.5940299,26.3641791 C23.6656716,26.4358209 23.6895522,26.5074627 23.6656716,26.6029851 C23.641791,26.6746269 23.5701493,26.7462687 23.4746269,26.7701493 L19.6537313,27.5820896 C19.6298507,27.5820896 19.6059701,27.5820896 19.6059701,27.5820896 L19.6059701,27.5820896 Z M21.9223881,25.361194 L20.3462687,26.9373134 L22.9253731,26.3880597 L21.9223881,25.361194 Z" id="Shape" fill="#FF6C37"></path>
                <path d="M23.4029851,26.5313433 L20.7761194,27.1044776 C20.5850746,27.1522388 20.3940299,27.0328358 20.3462687,26.841791 C20.3223881,26.7223881 20.3462687,26.6029851 20.441791,26.5074627 L21.8985075,25.0507463 L23.4029851,26.5313433 Z" id="Path" fill="#FFFFFF"></path>
                <path d="M20.7283582,27.3432836 C20.3940299,27.3432836 20.1313433,27.080597 20.1313433,26.7462687 C20.1313433,26.5791045 20.2029851,26.4358209 20.2985075,26.3164179 L21.7552239,24.8597015 C21.8507463,24.7641791 21.9940299,24.7641791 22.0895522,24.8597015 L23.5940299,26.3641791 C23.6656716,26.4358209 23.6895522,26.5074627 23.6656716,26.6029851 C23.641791,26.6746269 23.5701493,26.7462687 23.4746269,26.7701493 L20.8477612,27.3432836 C20.8,27.3432836 20.7522388,27.3432836 20.7283582,27.3432836 L20.7283582,27.3432836 Z M21.9223881,25.361194 L20.6328358,26.6507463 C20.5850746,26.6985075 20.5850746,26.7462687 20.6089552,26.7940299 C20.6328358,26.841791 20.680597,26.8656716 20.7522388,26.8656716 L22.9492537,26.3880597 L21.9223881,25.361194 Z" id="Shape" fill="#FF6C37"></path>
                <path d="M38.041791,12.3462687 C37.9940299,12.2029851 37.8268657,12.1313433 37.6835821,12.1791045 C37.5402985,12.2268657 37.4686567,12.3940299 37.5164179,12.5373134 C37.5164179,12.561194 37.5402985,12.5850746 37.5402985,12.6089552 C37.6835821,12.8955224 37.6358209,13.2537313 37.4447761,13.5164179 C37.3492537,13.6358209 37.3731343,13.8029851 37.4686567,13.8985075 C37.5880597,13.9940299 37.7552239,13.9701493 37.8507463,13.8507463 C38.2089552,13.3970149 38.280597,12.8238806 38.041791,12.3462687 L38.041791,12.3462687 Z" id="Path" fill="#FF6C37"></path>
            </g>
        </g>
    </g>
</svg>