<?xml version="1.0" encoding="UTF-8"?>
<svg width="48px" height="48px" viewBox="0 0 48 48" version="1.1" xmlns="http://www.w3.org/2000/svg" xmlns:xlink="http://www.w3.org/1999/xlink">
    <title>A3BEF03A-56A0-42E4-B307-8D4C0625C3AB</title>
    <g id="Page-1" stroke="none" stroke-width="1" fill="none" fill-rule="evenodd">
        <g id="BC-Search-results" transform="translate(-100.000000, -264.000000)">
            <g id="Twitter" transform="translate(100.000000, 264.000000)">
                <g id="Dark_Blue" fill="#1DA1F2" fill-rule="nonzero">
                    <path d="M24,0 L24,0 C37.2528,0 48,10.7472 48,24 L48,24 C48,37.2528 37.2528,48 24,48 L24,48 C10.7472,48 0,37.2528 0,24 L0,24 C0,10.7472 10.7472,0 24,0 Z" id="Path"></path>
                </g>
                <g id="Logo_FIXED">
                    <path d="M18.432,36.192 C29.7504,36.192 35.9472,26.8128 35.9472,18.6768 C35.9472,18.4128 35.9472,18.144 35.928,17.88 C37.1328,17.0064 38.1744,15.9312 39,14.6928 C37.8768,15.192 36.6864,15.5184 35.4672,15.6624 C36.7536,14.8944 37.7136,13.6848 38.1744,12.2592 C36.9648,12.9744 35.6448,13.4832 34.2672,13.752 C31.9344,11.2752 28.0368,11.1552 25.56,13.4832 C23.9616,14.9856 23.2848,17.2272 23.7792,19.3632 C18.8304,19.1136 14.2176,16.776 11.0928,12.9312 C9.4608,15.744 10.2912,19.3392 12.9984,21.1488 C12.0192,21.12 11.0592,20.856 10.2048,20.3808 C10.2048,20.4048 10.2048,20.4336 10.2048,20.4576 C10.2048,23.3856 12.2688,25.9104 15.144,26.4912 C14.2368,26.736 13.2864,26.7744 12.3648,26.5968 C13.1712,29.1024 15.48,30.8208 18.1152,30.8736 C15.936,32.5872 13.2432,33.5184 10.4736,33.5136 C9.984,33.5136 9.4944,33.4848 9.0096,33.4224 C11.8128,35.232 15.0912,36.192 18.432,36.1872" id="Path" fill="#FFFFFF" fill-rule="nonzero"></path>
                    <path d="M24,0 L24,0 C37.2528,0 48,10.7472 48,24 L48,24 C48,37.2528 37.2528,48 24,48 L24,48 C10.7472,48 0,37.2528 0,24 L0,24 C0,10.7472 10.7472,0 24,0 Z" id="Path"></path>
                </g>
            </g>
        </g>
    </g>
</svg>