<?xml version="1.0" encoding="UTF-8"?>
<svg width="48px" height="48px" viewBox="0 0 48 48" version="1.1" xmlns="http://www.w3.org/2000/svg" xmlns:xlink="http://www.w3.org/1999/xlink">
    <title>70032084-3603-44AB-A3F1-95A8FE480C01</title>
    <g id="Page-1" stroke="none" stroke-width="1" fill="none" fill-rule="evenodd">
        <g id="BC-Search-results" transform="translate(-100.000000, -800.000000)" fill="#161514">
            <g id="Logo/Twitter-Copy-4" transform="translate(100.000000, 800.000000)">
                <path d="M23.99779,0 C10.7465545,0 0,11.0170092 0,24.6081283 C0,35.4801173 6.87608582,44.7025005 16.4130268,47.956393 C17.6138003,48.1829872 18.0513828,47.4231413 18.0513828,46.7705501 C18.0513828,46.1874477 18.030756,44.6390541 18.0189693,42.5861108 C11.3432579,44.0725687 9.93474324,39.2868995 9.93474324,39.2868995 C8.84299702,36.4438978 7.26946806,35.6870733 7.26946806,35.6870733 C5.09039565,34.1613391 7.43448234,34.1915517 7.43448234,34.1915517 C9.84339605,34.3652739 11.1104699,36.7278959 11.1104699,36.7278959 C13.2512355,40.4878487 16.7283219,39.4017073 18.095583,38.7717754 C18.3136376,37.1825949 18.9339145,36.0979641 19.6190184,35.4831385 C14.2899414,34.8622704 8.6868228,32.7504127 8.6868228,23.3210734 C8.6868228,20.635177 9.62239479,18.4372134 11.1576169,16.7181189 C10.9100955,16.0957402 10.0864974,13.5926298 11.3933515,10.205802 C11.3933515,10.205802 13.4074097,9.54414701 17.9924491,12.7285506 C19.90632,12.1817033 21.9601584,11.9097903 24.0007367,11.8992159 C26.0398416,11.9097903 28.0922066,12.1817033 30.0090242,12.7285506 C34.591117,9.54414701 36.6022284,10.205802 36.6022284,10.205802 C37.9120292,13.5926298 37.0884312,16.0957402 36.8423831,16.7181189 C38.3805519,18.4372134 39.3087572,20.635177 39.3087572,23.3210734 C39.3087572,32.7745827 33.6967986,34.8547173 28.3515148,35.4635003 C29.2119463,36.2233462 29.9795574,37.7249103 29.9795574,40.0210647 C29.9795574,43.3097016 29.9500905,45.9638748 29.9500905,46.7705501 C29.9500905,47.4291839 30.383253,48.1950722 31.6002333,47.9548824 C41.1298075,44.6934368 48,35.477096 48,24.6081283 C48,11.0170092 37.2534455,0 23.99779,0" id="Fill-4"></path>
            </g>
        </g>
    </g>
</svg>