<?xml version="1.0" encoding="UTF-8"?>
<svg width="48px" height="37px" viewBox="0 0 48 37" version="1.1" xmlns="http://www.w3.org/2000/svg" xmlns:xlink="http://www.w3.org/1999/xlink">
    <title>F9B02BBF-1A84-40C5-9BB1-FB276A57F311</title>
    <g id="Page-1" stroke="none" stroke-width="1" fill="none" fill-rule="evenodd">
        <g id="BC-Search-results" transform="translate(-100.000000, -686.000000)" fill-rule="nonzero">
            <g id="Gmail_icon_(2020)" transform="translate(100.000000, 686.000000)">
                <path d="M3.27272727,36.5454545 L10.9090909,36.5454545 L10.9090909,18 L0,9.81818182 L0,33.2727273 C0,35.0836364 1.46727273,36.5454545 3.27272727,36.5454545" id="Path" fill="#4285F4"></path>
                <path d="M37.0909091,36.5454545 L44.7272727,36.5454545 C46.5381818,36.5454545 48,35.0781818 48,33.2727273 L48,9.81818182 L37.0909091,18" id="Path" fill="#34A853"></path>
                <path d="M37.0909091,3.81818182 L37.0909091,18 L48,9.81818182 L48,5.45454545 C48,1.40727273 43.38,-0.9 40.1454545,1.52727273" id="Path" fill="#FBBC04"></path>
                <polyline id="Path" fill="#EA4335" points="10.9090909 18 10.9090909 3.81818182 24 13.6363636 37.0909091 3.81818182 37.0909091 18 24 27.8181818"></polyline>
                <path d="M0,5.45454545 L0,9.81818182 L10.9090909,18 L10.9090909,3.81818182 L7.85454545,1.52727273 C4.61454545,-0.9 0,1.40727273 0,5.45454545" id="Path" fill="#C5221F"></path>
            </g>
        </g>
    </g>
</svg>