<?xml version="1.0" encoding="utf-8"?>
<!-- Generator: Adobe Illustrator 27.4.1, SVG Export Plug-In . SVG Version: 6.00 Build 0)  -->
<svg version="1.1" xmlns="http://www.w3.org/2000/svg" xmlns:xlink="http://www.w3.org/1999/xlink" x="0px" y="0px"
	 viewBox="0 0 607.5 63.1" style="enable-background:new 0 0 607.5 63.1;" xml:space="preserve">
<style type="text/css">
	.st0{fill:#FFFFFF;}
	.st1{fill:#53C3C2;}
</style>
<g id="Layer_2">
</g>
<g id="Layer_1">
	<g id="Layer_2_00000167364388621854274780000014603465254275811492_">
	</g>
	<g>
		<path class="st0" d="M27.8,61.9H0V2.7h26.3c14.9,0,21.3,6.4,21.3,16.1c0,6.7-4.5,11.4-10.9,12.4c7.2,1.3,12.7,6,12.7,14.5
			C49.4,55.8,41.6,61.9,27.8,61.9 M11.5,27.3h14.1c7.1,0,10.1-3.1,10.1-7.5s-3-7.6-10.1-7.6H11.5V27.3z M11.5,36.2v16.2h15
			c7.3,0,10.9-3.1,10.9-8s-3.6-8.1-10.9-8.1C26.5,36.2,11.5,36.2,11.5,36.2z"/>
		<path class="st0" d="M91.5,51.8c0,2.1,1.1,3.2,2.9,3.2c1.2,0,2.4-0.3,3.5-0.8v6c-2.2,1.8-5,2.7-7.8,2.6c-4.7,0-8.3-3-9.1-8
			c-2.4,4.9-7.6,8.1-14.5,8.1c-7.9,0-13.1-4.2-13.1-11.4c0-7.9,6.2-11.2,15.8-13l11.4-2.1v-1.2c0-4.6-2.5-7.4-7.2-7.4
			s-7.2,2.8-8.1,6.8l-10.2-0.9c1.4-8.5,7.9-14.4,18.9-14.4c11,0,17.8,5.1,17.8,16C91.5,35.3,91.5,51.8,91.5,51.8z M80.5,42.5
			l-7.8,1.6c-5.1,1-8.4,2.4-8.4,6.2c0,2.9,2.1,5.1,5.7,5.1c5.9,0,10.4-4.4,10.4-11.5L80.5,42.5L80.5,42.5z"/>
		<path class="st0" d="M183.8,48.1c-2.1,9.4-9.4,14.9-20,14.9c-12.8,0-22-8.1-22-21.2s9.3-22.4,21.7-22.4C177,19.4,184,28.8,184,40
			v3.6h-31.1c0.4,6.8,5.1,10.9,11.3,10.9c5.5,0,8.9-2.5,10.5-7.3L183.8,48.1L183.8,48.1z M173,37.6c-0.2-5.4-3.3-10.1-9.6-10.1
			c-6.3,0-9.7,4.5-10.3,10.1H173z"/>
		<path class="st0" d="M219.1,31.5c-2-1.2-4.4-1.9-6.7-1.8c-5.8,0-9.8,4.2-9.8,11.6v20.4h-11.3V20.5h11.3v7.9c1.5-4.7,5.8-9,11.5-9
			c2.5,0,4.6,0.7,5.8,1.7L219.1,31.5L219.1,31.5z"/>
		<path class="st0" d="M224.7,2.7h11.5v11h-11.5V2.7z M236.2,61.9h-11.3V20.5h11.3V61.9L236.2,61.9z"/>
		<path class="st0" d="M256.7,61.9h-11.3V20.5h11.3v6.8c2.1-4.7,7.3-7.9,13.5-7.9c11.1,0,15.1,7.5,15.1,16.7v25.8h-11.3V38.3
			c0-6.4-2.5-10.1-8.1-10.1c-5.6,0-9.3,4.5-9.3,11.5L256.7,61.9L256.7,61.9z"/>
		<path class="st0" d="M330.2,51.8c0,2.1,1.1,3.2,2.9,3.2c1.2,0,2.4-0.3,3.5-0.8v6c-2.2,1.8-5,2.7-7.8,2.6c-4.7,0-8.3-3-9.1-8
			c-2.4,4.9-7.6,8.1-14.5,8.1c-7.9,0-13.1-4.2-13.1-11.4c0-7.9,6.2-11.2,15.7-13l11.4-2.1v-1.2c0-4.6-2.5-7.4-7.2-7.4
			s-7.2,2.8-8.2,6.8l-10.2-0.9c1.4-8.5,7.9-14.4,18.9-14.4s17.8,5.1,17.8,16L330.2,51.8L330.2,51.8z M319.2,42.5l-7.8,1.6
			c-5.2,1-8.4,2.4-8.4,6.2c0,2.9,2.1,5.1,5.7,5.1c5.9,0,10.4-4.4,10.4-11.5V42.5z"/>
		<polygon class="st0" points="102.8,18.1 102.8,1 117.1,1 117.1,23.5 		"/>
		<polygon class="st0" points="102.8,23.4 112.6,27.2 102.8,30.9 		"/>
		<polygon class="st0" points="117.1,30.8 117.1,39.1 110.1,61.9 102.8,61.9 102.8,36.3 		"/>
		<polygon class="st0" points="136.4,18.1 136.4,1 122,1 122,23.5 		"/>
		<polygon class="st0" points="136.4,23.4 126.6,27.2 136.4,30.9 		"/>
		<polygon class="st0" points="122,30.8 122,39.1 129,61.9 136.4,61.9 136.4,36.3 		"/>
		<g>
			<path class="st1" d="M359.5,15.9c2.7-1.7,5.9-2.5,9.5-2.5c3.6,0,6.7,0.9,9.3,2.8c2.6,1.9,4.4,4.2,5.5,7.1l9.4-4.4
				c-1-2.7-2.6-5.2-4.8-7.5c-2.3-2.3-5-4.1-8.3-5.5c-3.3-1.4-6.9-2.1-11-2.1c-4.1,0-7.9,0.7-11.4,2.2c-3.5,1.5-6.5,3.5-9.1,6.1
				c-2.6,2.6-4.6,5.8-6,9.4c-1.4,3.6-2.1,7.5-2.1,11.8c0,4.2,0.7,8.2,2.2,11.7c1.4,3.6,3.4,6.7,6,9.4c2.6,2.7,5.6,4.7,9.1,6.2
				c3.5,1.5,7.2,2.2,11.3,2.2c4.1,0,7.8-0.7,11-2.1c3.3-1.4,6-3.2,8.3-5.5c2.3-2.3,3.9-4.8,4.8-7.5l-9.4-4.4
				c-1.1,2.9-2.9,5.2-5.5,7.1c-2.6,1.9-5.7,2.8-9.3,2.8c-3.6,0-6.7-0.8-9.5-2.5c-2.7-1.7-4.9-4-6.4-7c-1.5-3-2.3-6.5-2.3-10.5
				c0-4,0.8-7.5,2.3-10.4C354.7,19.9,356.8,17.6,359.5,15.9z"/>
			<path class="st1" d="M434,25.3c-1.7-1.9-3.9-3.4-6.3-4.5c-2.5-1.1-5.4-1.6-8.6-1.6c-3.9,0-7.4,0.9-10.6,2.8
				c-3.1,1.9-5.6,4.5-7.4,7.7c-1.8,3.3-2.7,7-2.7,11.2c0,4,0.9,7.7,2.7,11.1c1.8,3.3,4.3,6,7.5,7.9c3.2,1.9,7,2.9,11.3,2.9
				c2.9,0,5.5-0.4,7.9-1.3c2.4-0.9,4.4-2.1,6.2-3.6c1.7-1.5,3-3.3,3.8-5.3l-8.1-4c-0.9,1.6-2.2,2.9-3.8,3.9c-1.6,1-3.6,1.5-5.9,1.5
				c-2.3,0-4.3-0.5-6.1-1.6c-1.8-1.1-3.1-2.6-4-4.6c-0.5-1.2-0.9-2.5-1-4h30.1c0.2-0.6,0.3-1.2,0.4-2c0.1-0.8,0.1-1.5,0.1-2.2
				c0-2.8-0.5-5.4-1.4-7.9C437.1,29.4,435.7,27.2,434,25.3z M413.4,29.1c1.6-1,3.5-1.6,5.6-1.6c2.2,0,4.1,0.5,5.6,1.6
				c1.6,1.1,2.7,2.5,3.4,4.4c0.3,0.8,0.5,1.7,0.6,2.7h-19.7c0.2-0.9,0.4-1.7,0.7-2.5C410.5,31.7,411.8,30.2,413.4,29.1z"/>
			<path class="st1" d="M476.4,21.3c-2.4-1.3-5.1-2-8.2-2c-3,0-5.6,0.7-7.8,2c-1.7,1-3.1,2.4-4,4.1v-5.1H447V62H457V37.5
				c0-1.8,0.4-3.4,1.1-4.8c0.7-1.3,1.7-2.4,3-3.1c1.3-0.7,2.7-1.1,4.4-1.1c1.7,0,3.2,0.4,4.4,1.1c1.3,0.7,2.2,1.8,3,3.1
				c0.7,1.3,1.1,2.9,1.1,4.8V62H484V35.1c0-3.1-0.7-5.9-2-8.3C480.6,24.5,478.8,22.6,476.4,21.3z"/>
			<path class="st1" d="M513.8,53.6c-1.6,0-3-0.3-4-0.8c-1-0.5-1.8-1.3-2.3-2.2c-0.5-1-0.7-2.2-0.7-3.5V29.2h9.6v-9h-9.6v-9.5h-10.1
				v3.2c0,2-0.6,3.6-1.7,4.7c-1.1,1.1-2.7,1.6-4.8,1.6h-0.8v9h7.2v18.4c0,4.7,1.3,8.4,3.9,10.9c2.6,2.6,6.2,3.9,10.9,3.9
				c0.8,0,1.6-0.1,2.5-0.2c0.9-0.1,1.7-0.2,2.5-0.3v-8.6c-0.5,0.1-0.9,0.1-1.4,0.2C514.6,53.6,514.2,53.6,513.8,53.6z"/>
			<path class="st1" d="M537.4,21.6c-1.6,0.9-2.9,2.5-3.8,4.5v-5.9h-9.4V62h10.1V38.7c0-3.2,0.9-5.6,2.6-7.4c1.7-1.8,4-2.6,6.9-2.6
				h3.6v-8.9h-2.5C542,19.7,539.5,20.4,537.4,21.6z"/>
			<path class="st1" d="M579.9,21.2c-2.6-1.3-5.6-1.9-9.1-1.9c-2.8,0-5.4,0.5-7.8,1.4c-2.4,0.9-4.5,2.2-6.3,3.8
				c-1.8,1.6-3.1,3.5-3.9,5.7l8.2,4c0.8-1.9,2-3.4,3.6-4.6c1.7-1.2,3.6-1.7,5.7-1.7c2.3,0,4.2,0.6,5.6,1.8c1.4,1.2,2.1,2.7,2.1,4.5
				v1.4l-12.4,2c-3.3,0.5-6,1.4-8.1,2.6c-2.2,1.2-3.7,2.8-4.8,4.6c-1,1.8-1.5,3.9-1.5,6.2c0,2.4,0.6,4.5,1.8,6.3
				c1.2,1.8,2.8,3.2,5,4.2c2.2,1,4.7,1.5,7.6,1.5c2.3,0,4.4-0.3,6.3-1c1.9-0.6,3.6-1.6,5.1-2.8c0.6-0.5,1.2-1,1.7-1.6V62h9.5V34.2
				c0-3-0.7-5.6-2.2-7.8C584.5,24.2,582.5,22.4,579.9,21.2z M576.8,50.1c-0.9,1.6-2.2,2.8-3.8,3.7c-1.6,0.9-3.5,1.3-5.6,1.3
				c-1.6,0-3-0.4-4.1-1.3c-1.1-0.8-1.7-2-1.7-3.4c0-1.5,0.5-2.7,1.5-3.6c1-0.9,2.5-1.6,4.5-1.9l10.5-1.8v1.7
				C578.1,46.8,577.7,48.6,576.8,50.1z"/>
			<rect x="597.5" y="3.8" class="st1" width="10.1" height="58.1"/>
		</g>
	</g>
</g>
</svg>
