<?xml version="1.0" encoding="UTF-8"?>
<svg id="a" data-name="Layer 1" xmlns="http://www.w3.org/2000/svg" viewBox="0 0 1092.94 113.46">
  <defs>
    <style>
      .b {
        fill: #41c4be;
      }

      .c {
        fill: #464646;
      }
    </style>
  </defs>
  <path class="c" d="M50.84,111.32H0V3.11H48.1c27.3,0,39,11.68,39,29.38,0,12.19-8.25,20.78-19.93,22.67,13.06,2.4,23.19,11,23.19,26.45,0,18.72-14.26,29.71-39.51,29.71M20.96,48.11h25.76c12.88,0,18.38-5.66,18.38-13.74s-5.5-13.91-18.38-13.91H20.96v27.65Zm0,16.32v29.54h27.51c13.4,0,19.92-5.66,19.92-14.59s-6.52-14.95-19.92-14.95H20.96Z"/>
  <path class="c" d="M167.33,92.94c0,3.95,2.07,5.84,5.33,5.84,2.2-.04,4.37-.57,6.35-1.54v11c-4.01,3.28-9.07,4.99-14.25,4.81-8.59,0-15.12-5.5-16.66-14.6-4.3,8.93-13.92,14.77-26.46,14.77-14.42,0-24-7.73-24-20.78,0-14.43,11.33-20.44,28.85-23.71l20.78-3.94v-2.24c0-8.42-4.46-13.56-13.22-13.56s-13.23,5.14-14.94,12.53l-18.72-1.72c2.57-15.45,14.43-26.27,34.52-26.27s32.46,9.27,32.46,29.19l-.04,30.22Zm-20.1-17l-14.25,2.92c-9.45,1.89-15.29,4.29-15.29,11.33,0,5.33,3.78,9.28,10.48,9.28,10.82,0,19.06-8.07,19.06-21v-2.53Z"/>
  <path class="c" d="M336.17,86.07c-3.77,17.18-17.17,27.31-36.58,27.31-23.36,0-40.19-14.94-40.19-38.81s17-41.05,39.67-41.05c24.74,0,37.45,17.17,37.45,37.78v6.53h-56.85c.68,12.36,9.44,19.92,20.61,19.92,10.13,0,16.32-4.46,19.23-13.4l16.66,1.72Zm-19.7-19.06c-.34-9.79-6-18.38-17.52-18.38s-17.69,8.25-18.89,18.38h36.41Z"/>
  <path class="c" d="M400.8,55.84c-3.72-2.23-7.99-3.36-12.33-3.26-10.65,0-17.86,7.56-17.86,21.3v37.44h-20.65V35.57h20.61v14.44c2.75-8.59,10.65-16.49,21.13-16.49,4.63,0,8.41,1.2,10.64,3.09l-1.54,19.23Z"/>
  <path class="c" d="M411.02,3.11h21.12V23.21h-21.12V3.11Zm20.95,108.21h-20.61V35.57h20.61V111.32Z"/>
  <path class="c" d="M469.56,111.32h-20.61V35.58h20.61v12.36c3.77-8.59,13.39-14.42,24.73-14.42,20.27,0,27.65,13.73,27.65,30.57v47.23h-20.61v-43.11c0-11.68-4.64-18.38-14.77-18.38s-17,8.25-17,21v40.49Z"/>
  <path class="c" d="M603.86,92.94c0,3.95,2.06,5.84,5.32,5.84,2.21-.04,4.38-.56,6.36-1.54v11c-4.01,3.28-9.08,4.99-14.26,4.81-8.58,0-15.11-5.5-16.66-14.6-4.29,8.93-13.91,14.77-26.45,14.77-14.43,0-24-7.73-24-20.78,0-14.43,11.33-20.44,28.85-23.71l20.78-3.94v-2.24c0-8.42-4.47-13.56-13.22-13.56s-13.23,5.14-15,12.53l-18.72-1.72c2.58-15.45,14.43-26.27,34.53-26.27s32.46,9.27,32.46,29.19v30.22Zm-20.09-17l-14.29,2.92c-9.45,1.89-15.29,4.29-15.29,11.33,0,5.33,3.78,9.28,10.48,9.28,10.82,0,19.06-8.07,19.06-21l.04-2.53Z"/>
  <polygon class="c" points="187.99 31.25 187.99 0 214.15 0 214.15 41.25 187.99 31.25"/>
  <polygon class="c" points="187.99 41.03 205.89 47.88 187.99 54.72 187.99 41.03"/>
  <polygon class="c" points="214.15 54.5 214.15 69.63 201.43 111.32 187.99 111.32 187.99 64.51 214.15 54.5"/>
  <polygon class="c" points="249.37 31.25 249.37 0 223.21 0 223.21 41.25 249.37 31.25"/>
  <polygon class="c" points="249.37 41.03 231.47 47.88 249.37 54.72 249.37 41.03"/>
  <polygon class="c" points="223.21 54.5 223.21 69.63 235.93 111.32 249.37 111.32 249.37 64.51 223.21 54.5"/>
  <path class="b" d="M785.54,85.48c-3.67,17.29-16.24,27.94-34.74,27.94-22,0-38.41-15.54-38.41-38.94s16.24-41,37.71-41c23.74,0,35.61,17.11,35.61,37.71v4.89h-62.32c.7,16.75,12.39,28.63,27.41,28.63,14,0,22.52-7,25.66-20.42l9.08,1.19Zm-11.17-16.93c-.36-14-8.21-26.71-24.27-26.71-15,0-24.79,12.57-26.54,26.71h50.81Z"/>
  <path class="b" d="M813.99,111.32h-10.65V35.56h10.65v14c3.66-9.26,14.14-16.06,25.48-16.06,19.55,0,27.76,12.73,27.76,30.89v47h-10.65v-47.38c0-13.44-7-22.17-19.9-22.17-12.05,0-22.69,9.43-22.69,24.09v45.39Z"/>
  <path class="b" d="M891.67,43.41h-11.7v-5.24l4.54-.87c7-1.4,8.38-4.71,10-12l2.27-10.83h5.41v21.13h22v7.85h-22v51.26c0,6.8,2.79,10.12,9.78,10.12,5.23,0,10.47-2.62,14.84-5.23v7.5c-5.21,4.25-11.78,6.49-18.51,6.29-10.12,0-16.58-5.07-16.58-18.86l-.05-51.12Z"/>
  <path class="b" d="M983.66,46.2c-4.36-2.26-7-3-11.52-3-11,0-19.9,11.34-19.9,26.53v41.55h-10.65V35.56h10.65v15.88c3-8.72,10.65-18,21.82-18,4.71,0,8,1.05,10.83,3.5l-1.23,9.26Z"/>
  <path class="b" d="M1055.41,98.58c0,4,2.44,5.94,6.28,5.94,2.39-.11,4.72-.77,6.81-1.92v5.75c-2.27,2.62-4.71,4.54-10,4.54-7.51,0-12.92-6.45-13.27-16.06-4,8.91-15.19,16.59-28.1,16.59-14.14,0-23.57-7.86-23.57-20.95,0-14.32,12.57-20.08,31.42-23.92l20.25-4.19v-3.84c0-11.52-6.8-18.68-18.68-18.68s-19,7.16-21.64,16.94l-9.08-1.75c3-13.62,14.14-23.57,30.55-23.57,18.85,0,29,9.95,29,28.63l.03,36.49Zm-10.13-26.36l-18.5,4c-13.79,3-22.35,5.77-22.35,15.89,0,7.16,4.72,13.09,14.67,13.09,14.84,0,26.18-11.34,26.18-28.28v-4.7Z"/>
  <rect class="b" x="1082.29" y="1.34" width="10.65" height="109.98"/>
  <path class="b" d="M689.47,79.92c-1.29,14.12-10.14,24.6-25.76,24.6s-26.71-12.4-26.71-31.08,10.82-31.08,26.71-31.08,24.32,10,25.72,23.91l9.77-.71c-1.77-17.83-13.58-32.1-35.14-32.1s-38.23,15.89-38.23,40,15.71,40,38.23,40,33.52-14.45,35.18-32.43l-9.77-1.11Z"/>
</svg>