<?xml version="1.0" encoding="utf-8"?>
<!-- Generator: Adobe Illustrator 27.1.1, SVG Export Plug-In . SVG Version: 6.00 Build 0)  -->
<svg version="1.1" xmlns="http://www.w3.org/2000/svg" xmlns:xlink="http://www.w3.org/1999/xlink" x="0px" y="0px"
	 viewBox="0 0 31.01 31.01" style="enable-background:new 0 0 31.01 31.01;" xml:space="preserve">
<style type="text/css">
	.st0{fill:#FFFFFF;}
	.st1{fill:#585A5E;}
	.st2{fill:none;stroke:#585A5E;stroke-linecap:round;stroke-linejoin:round;stroke-miterlimit:10;}
	.st3{fill:#FFFFFF;stroke:#585A5E;stroke-width:2;stroke-linecap:round;stroke-linejoin:round;stroke-miterlimit:10;}
	.st4{fill:#FFFFFF;stroke:#585A5E;stroke-linecap:round;stroke-linejoin:round;stroke-miterlimit:10;}
	.st5{fill:none;stroke:#585A5E;stroke-width:1.5;stroke-miterlimit:10;}
	.st6{fill:#FFFFFF;stroke:#585A5E;stroke-width:1.5;stroke-miterlimit:10;}
	.st7{fill:#595A5E;}
</style>
<g id="Layer_2">
</g>
<g id="Layer_1">
	<g>
		<path class="st5" d="M28.42,27.57H7.41c-1.01,0-1.84-0.82-1.84-1.84V2.59c0-1.01,0.82-1.84,1.84-1.84h21.01
			c1.01,0,1.84,0.82,1.84,1.84v23.15C30.26,26.75,29.44,27.57,28.42,27.57z"/>
		<path class="st6" d="M26.66,4.48V2.52c0-0.98-0.79-1.77-1.77-1.77H5.49c-0.98,0-1.77,0.79-1.77,1.77V25.8
			c0,0.98,0.79,1.77,1.77,1.77h19.41c0.98,0,1.77-0.79,1.77-1.77v-1.95"/>
		<path class="st2" d="M26.66,30.51H2.06c-0.86,0-1.56-0.62-1.56-1.39V5.07"/>
		<g>
			<line class="st4" x1="9.03" y1="12.78" x2="21.92" y2="12.78"/>
			<line class="st4" x1="9.03" y1="16.76" x2="21.92" y2="16.76"/>
			<line class="st4" x1="9.03" y1="20.75" x2="15.33" y2="20.75"/>
			<line class="st3" x1="9.03" y1="7.79" x2="21.92" y2="7.79"/>
		</g>
		<line class="st5" x1="26.66" y1="6.04" x2="26.66" y2="9.61"/>
		<line class="st5" x1="26.66" y1="11.78" x2="26.66" y2="15.76"/>
		<line class="st5" x1="26.66" y1="18.15" x2="26.66" y2="22.04"/>
	</g>
</g>
</svg>
