<?xml version="1.0" encoding="UTF-8"?>
<svg width="16px" height="16px" viewBox="0 0 16 16" version="1.1" xmlns="http://www.w3.org/2000/svg" xmlns:xlink="http://www.w3.org/1999/xlink">
    <title>6CF3FBF5-B350-46B6-81F2-C466497AC0C2</title>
    <g id="UI-kit" stroke="none" stroke-width="1" fill="none" fill-rule="evenodd">
        <g id="Icons" transform="translate(-682.000000, -542.000000)" fill="#40404B" fill-rule="nonzero">
            <g id="Icon/Email" transform="translate(682.000000, 542.000000)">
                <path d="M14.5,2.5 C15.3284271,2.5 16,3.17157288 16,4 L16,4 L16,12 C16,12.8284271 15.3284271,13.5 14.5,13.5 L14.5,13.5 L1.5,13.5 C0.671572875,13.5 0,12.8284271 0,12 L0,12 L0,4 C0,3.17157288 0.671572875,2.5 1.5,2.5 L1.5,2.5 Z M9.5,8.44 L8.93704257,8.89067837 C8.42834516,9.29763629 7.72081304,9.32670472 7.18371067,8.97788364 L7.06295743,8.89067837 L6.5,8.44 L1.433,12.493 L1.5,12.5 L14.5,12.5 C14.5227533,12.5 14.5451516,12.4984802 14.567099,12.4955365 L9.5,8.44 Z M15,4.039 L10.3,7.8 L15,11.56 L15,4.039 Z M1,4.041 L1,11.558 L5.699,7.8 L1,4.041 Z M14.073,3.5 L1.926,3.5 L7.68765248,8.10980956 C7.84417476,8.23502738 8.0571708,8.25291564 8.22982844,8.16347434 L8.31234752,8.10980956 L14.073,3.5 Z" id="Combined-Shape"></path>
            </g>
        </g>
    </g>
</svg>