<?xml version="1.0" encoding="UTF-8"?>
<svg width="19px" height="18px" viewBox="0 0 19 18" version="1.1" xmlns="http://www.w3.org/2000/svg" xmlns:xlink="http://www.w3.org/1999/xlink">
    <title>B37193BB-475F-497F-B574-D6E159FBD077</title>
    <g id="Page-1" stroke="none" stroke-width="1" fill="none" fill-rule="evenodd">
        <g id="BC-Profile" transform="translate(-1191.000000, -333.000000)" fill="#8D91A3" fill-rule="nonzero">
            <g id="Icon/Controls/Exit" transform="translate(1191.750000, 333.000000)">
                <path d="M9.06188768,1 C13.1411762,1 16.5073527,4.05319574 16.9998748,7.99904492 L8.25188768,8 L10.2689945,5.98384906 C10.6595188,5.59332476 10.6595188,4.96015978 10.2689945,4.56963549 L10.1922522,4.49289322 C9.8017279,4.10236893 9.16856292,4.10236893 8.77803862,4.49289322 L4.97390676,8.29702508 C4.58338247,8.68754938 4.58338247,9.32071435 4.97390676,9.71123865 L8.77803862,13.5153705 C9.16856292,13.9058948 9.8017279,13.9058948 10.1922522,13.5153705 L10.2689945,13.4386282 C10.6595188,13.0481039 10.6595188,12.414939 10.2689945,12.0244147 L8.24588768,10 L17,9.99995128 C16.5079235,13.9462864 13.1415221,17 9.06188768,17 C4.64360968,17 1.06188768,13.418278 1.06188768,9 C1.06188768,4.581722 4.64360968,1 9.06188768,1 Z" id="Combined-Shape"></path>
            </g>
        </g>
    </g>
</svg>