<?xml version="1.0" encoding="utf-8"?>
<!-- Generator: Adobe Illustrator 27.1.1, SVG Export Plug-In . SVG Version: 6.00 Build 0)  -->
<svg version="1.1" xmlns="http://www.w3.org/2000/svg" xmlns:xlink="http://www.w3.org/1999/xlink" x="0px" y="0px"
	 viewBox="0 0 30.26 30.26" style="enable-background:new 0 0 30.26 30.26;" xml:space="preserve">
<style type="text/css">
	.st0{fill:#FFFFFF;}
	.st1{fill:#585A5E;}
	.st2{fill:none;stroke:#585A5E;stroke-linecap:round;stroke-linejoin:round;stroke-miterlimit:10;}
	.st3{fill:#FFFFFF;stroke:#585A5E;stroke-width:2;stroke-linecap:round;stroke-linejoin:round;stroke-miterlimit:10;}
	.st4{fill:#FFFFFF;stroke:#585A5E;stroke-linecap:round;stroke-linejoin:round;stroke-miterlimit:10;}
	.st5{fill:none;stroke:#585A5E;stroke-width:1.5;stroke-miterlimit:10;}
	.st6{fill:#FFFFFF;stroke:#585A5E;stroke-width:1.5;stroke-miterlimit:10;}
	.st7{fill:#595A5E;}
</style>
<g id="Layer_2">
</g>
<g id="Layer_1">
	<g>
		<g>
			<path class="st0" d="M5.51,26.07c-0.58,0-1.05-0.47-1.05-1.05V1.8c0-0.58,0.47-1.05,1.05-1.05h22.95c0.58,0,1.05,0.47,1.05,1.05
				v23.23c0,0.58-0.47,1.05-1.05,1.05H5.51z"/>
			<path class="st1" d="M28.46,1.5c0.16,0,0.3,0.13,0.3,0.3v23.23c0,0.16-0.13,0.3-0.3,0.3H5.51c-0.16,0-0.3-0.13-0.3-0.3V1.8
				c0-0.16,0.13-0.3,0.3-0.3H28.46 M28.46,0H5.51c-0.99,0-1.8,0.8-1.8,1.8v23.23c0,0.99,0.8,1.8,1.8,1.8h22.95
				c0.99,0,1.8-0.8,1.8-1.8V1.8C30.26,0.8,29.45,0,28.46,0L28.46,0z"/>
		</g>
		<path class="st2" d="M26.66,29.76H2.06c-0.86,0-1.56-0.62-1.56-1.39V3.85"/>
		<g>
			<g>
				<line class="st3" x1="9.45" y1="7.51" x2="13.51" y2="7.51"/>
				<line class="st3" x1="16.86" y1="7.51" x2="17.28" y2="7.51"/>
				<line class="st3" x1="20.64" y1="7.51" x2="24.29" y2="7.51"/>
			</g>
			<g>
				<line class="st4" x1="9.03" y1="12.41" x2="24.71" y2="12.41"/>
				<line class="st4" x1="9.03" y1="16.2" x2="24.71" y2="16.2"/>
				<line class="st4" x1="9.03" y1="20" x2="16.26" y2="20"/>
			</g>
		</g>
	</g>
</g>
</svg>
